<?xml version="1.0"?>
<svg version="1.1" xmlns="http://www.w3.org/2000/svg" width="150" height="60" style=""><path fill="#098deb" d="M16.085205078125,23.377685546875q-0.042724609375-0.521240234375,0.068359375-0.90576171875t0.4443359375-0.63232421875t1.068115234375-0.247802734375l2.75146484375,0q0.56396484375,0,1.478271484375,0.059814453125t1.96533203125,0.179443359375t2.093505859375,0.367431640625t1.905517578125,0.615234375t1.4013671875,0.90576171875t0.538330078125,1.273193359375q0,1.04248046875-0.606689453125,1.956787109375t-1.52099609375,1.649169921875t-1.93115234375,1.307373046875t-1.820068359375,1.033935546875q3.1787109375,0.70068359375,4.97314453125,2.9052734375t1.79443359375,5.5029296875q0,1.7431640625-0.66650390625,3.443603515625t-1.820068359375,3.067626953125t-2.734375,2.20458984375t-3.392333984375,0.83740234375q-0.2392578125,0-0.538330078125-0.05126953125t-0.546875-0.162353515625t-0.42724609375-0.316162109375t-0.179443359375-0.52978515625q0-1.50390625,1.62353515625-1.50390625q0.2734375,0,0.640869140625,0.076904296875t0.572509765625,0.316162109375q0.93994140625-0.39306640625,1.717529296875-1.24755859375t1.31591796875-1.905517578125t0.83740234375-2.20458984375t0.299072265625-2.093505859375q0-1.1279296875-0.333251953125-2.298583984375t-0.965576171875-2.17041015625t-1.55517578125-1.683349609375t-2.119140625-0.8544921875q-0.3076171875-0.0341796875-0.675048828125-0.05126953125l-0.73486328125-0.0341796875t-0.7177734375-0.1025390625t-0.606689453125-0.2734375q0.13671875,2.8369140625,0.350341796875,5.65673828125t0.572509765625,5.65673828125q0.13671875,0.13671875,0.18798828125,0.401611328125t0.08544921875,0.56396484375t0.0341796875,0.572509765625l0,0.46142578125q0,0.3076171875-0.205078125,0.504150390625t-0.487060546875,0.316162109375t-0.59814453125,0.15380859375t-0.555419921875,0.0341796875q-0.76904296875,0-1.17919921875-0.205078125t-0.5810546875-0.59814453125t-0.22216796875-0.897216796875t-0.08544921875-1.102294921875q-0.46142578125-4.76806640625-0.66650390625-9.43359375t-0.205078125-9.43359375q0-0.56396484375-0.042724609375-1.085205078125z M19.23828125,22.6513671875q0,2.10205078125,0.13671875,4.212646484375t0.2392578125,4.212646484375q0.76904296875-0.46142578125,2.0166015625-1.085205078125t2.418212890625-1.375732421875t2.008056640625-1.65771484375t0.83740234375-1.96533203125q0-0.83740234375-0.9912109375-1.273193359375t-2.30712890625-0.6494140625t-2.572021484375-0.264892578125t-1.785888671875-0.15380859375z M34.169165039062,47.1923828125q0-0.49560546875,0.042724609375-1.04248046875t0.076904296875-1.025390625l0.1025390625-2.5634765625q0.1708984375-3.076171875,0.418701171875-6.0498046875t0.418701171875-6.015625q0.1025390625-1.6748046875,0.15380859375-3.289794921875t0.15380859375-3.289794921875q-0.068359375-0.13671875-0.068359375-0.18798828125q0-0.2392578125,0.179443359375-0.3759765625t0.418701171875-0.230712890625t0.504150390625-0.128173828125t0.401611328125-0.0341796875l0.39306640625,0q0.52978515625,0.068359375,0.76904296875,0.333251953125t0.3076171875,0.63232421875t0.0341796875,0.7861328125t-0.0341796875,0.777587890625q0,2.47802734375-0.11962890625,5.050048828125t-0.2734375,5.1611328125t-0.281982421875,5.17822265625t-0.128173828125,5.118408203125l0,1.1962890625q0,0.80322265625-0.452880859375,1.0595703125t-1.256103515625,0.25634765625q-0.70068359375,0-1.23046875-0.3076171875t-0.52978515625-1.00830078125z M41.665966796875,41.4501953125q0-0.97412109375,0.247802734375-2.008056640625t0.7861328125-1.86279296875t1.358642578125-1.35009765625t1.982421875-0.521240234375q0.87158203125,0,1.837158203125,0.299072265625t1.768798828125,0.8544921875t1.307373046875,1.358642578125t0.504150390625,1.79443359375q0,1.1962890625-0.435791015625,2.27294921875t-1.221923828125,1.922607421875t-1.837158203125,1.3330078125t-2.281494140625,0.487060546875q-1.00830078125,0-1.76025390625-0.367431640625t-1.256103515625-0.982666015625t-0.751953125-1.45263671875t-0.247802734375-1.77734375z M44.178173828125,41.416015625q0,0.3076171875,0.093994140625,0.90576171875t0.281982421875,1.170654296875t0.487060546875,0.9912109375t0.726318359375,0.384521484375q0.90576171875-0.1025390625,1.495361328125-0.589599609375t0.95703125-1.187744140625t0.5126953125-1.52099609375t0.145263671875-1.55517578125q0-0.93994140625-0.367431640625-1.572265625t-1.204833984375-1.025390625q0,0.0341796875,0.0341796875,0.0341796875t0.0341796875-0.0341796875l-0.42724609375-0.1025390625q-0.1708984375-0.068359375-0.418701171875-0.15380859375t-0.487060546875-0.3759765625q-0.66650390625,0.2392578125-1.033935546875,0.615234375t-0.555419921875,0.914306640625t-0.230712890625,1.290283203125t-0.042724609375,1.8115234375z M54.614428710937,40.52734375q0-0.93994140625,0.179443359375-2.008056640625t0.615234375-1.956787109375t1.204833984375-1.4697265625t1.96533203125-0.5810546875q0.80322265625,0,1.55517578125,0.264892578125t1.41845703125,0.726318359375q0.205078125-0.341796875,0.6494140625-0.418701171875t0.7861328125-0.076904296875q0.13671875,0,0.384521484375,0.01708984375t0.487060546875,0.1025390625t0.418701171875,0.205078125t0.213623046875,0.341796875q0.13671875,1.1962890625,0.18798828125,2.384033203125t0.15380859375,2.366943359375q0.1708984375,2.20458984375,0.52978515625,4.35791015625t0.35888671875,4.35791015625q0,1.04248046875-0.093994140625,2.255859375t-0.49560546875,2.247314453125t-1.170654296875,1.717529296875t-2.13623046875,0.68359375q-1.23046875,0-1.888427734375-0.435791015625t-1.187744140625-1.461181640625q0.0341796875-0.341796875,0.435791015625-0.452880859375t0.692138671875-0.111083984375q0.2734375,0,0.555419921875,0.05126953125t0.452880859375,0.1708984375l0.42724609375,0.2734375q0.63232421875-1.298828125,0.76904296875-2.8369140625t0.13671875-2.9736328125q0-1.1962890625-0.11962890625-2.366943359375t-0.2392578125-2.349853515625q-1.1962890625,2.17041015625-3.64013671875,2.17041015625q-1.1279296875,0-1.837158203125-0.478515625t-1.09375-1.21337890625t-0.52978515625-1.65771484375t-0.145263671875-1.845703125z M56.716479492187,40.68115234375q0,0.42724609375,0.0341796875,1.102294921875t0.179443359375,1.324462890625t0.418701171875,1.119384765625t0.76904296875,0.469970703125q0.93994140625,0,1.48681640625-0.73486328125t0.863037109375-1.751708984375t0.504150390625-2.10205078125t0.478515625-1.785888671875q-0.0341796875-0.2392578125-0.0341796875-0.469970703125l0-0.469970703125q-0.39306640625-0.73486328125-1.14501953125-1.273193359375t-1.55517578125-0.726318359375q-0.1025390625-0.01708984375-0.18798828125-0.01708984375q-0.478515625,0-0.7861328125,0.56396484375q-0.39306640625,0.68359375-0.615234375,1.632080078125t-0.316162109375,1.871337890625t-0.093994140625,1.24755859375z M69.22060546875,36.71630859375q0-0.70068359375,0.41015625-1.204833984375t0.999755859375-0.8203125t1.290283203125-0.469970703125t1.298828125-0.15380859375q0.46142578125,0,1.23046875,0.13671875t1.50390625,0.41015625t1.273193359375,0.7177734375t0.538330078125,1.04248046875q0,0.2734375-0.205078125,0.487060546875t-0.42724609375,0.213623046875q-0.46142578125,0-0.83740234375-0.299072265625t-0.777587890625-0.63232421875t-0.880126953125-0.63232421875t-1.07666015625-0.299072265625t-1.085205078125,0.384521484375t-0.487060546875,1.016845703125q0,1.04248046875,0.73486328125,2.042236328125t1.614990234375,2.10205078125t1.614990234375,2.315673828125t0.73486328125,2.68310546875q0,0.63232421875-0.264892578125,1.068115234375t-0.70068359375,0.709228515625t-0.982666015625,0.418701171875t-1.0595703125,0.145263671875q-0.56396484375,0-1.31591796875-0.264892578125t-1.41845703125-0.70068359375t-1.119384765625-1.016845703125t-0.452880859375-1.21337890625q0-0.3076171875,0.435791015625-0.39306640625t0.640869140625-0.08544921875q0.1025390625,0,0.316162109375,0.068359375t0.418701171875,0.15380859375t0.367431640625,0.18798828125t0.128173828125,0.22216796875q0.1708984375,0.205078125,0.521240234375,0.606689453125t0.70068359375,0.6494140625t0.615234375,0.179443359375t0.264892578125-0.76904296875q0-1.3330078125-0.7177734375-2.452392578125t-1.563720703125-2.1875t-1.563720703125-2.119140625t-0.7177734375-2.247314453125z M81.263305664062,34.93896484375q0-0.80322265625,0.316162109375-1.187744140625t1.153564453125-0.384521484375q0.49560546875,0,0.931396484375,0.205078125t0.435791015625,0.87158203125q0.068359375,0.97412109375,0.068359375,2.042236328125t0.18798828125,2.025146484375q0.42724609375-0.70068359375,0.965576171875-1.4013671875t1.187744140625-1.24755859375t1.41845703125-0.880126953125t1.6748046875-0.333251953125q1.23046875,0,2.0849609375,0.5126953125t1.409912109375,1.3330078125t0.80322265625,1.854248046875t0.247802734375,2.076416015625q0,1.6064453125-0.487060546875,2.623291015625t-1.290283203125,1.597900390625t-1.820068359375,0.7861328125t-2.042236328125,0.205078125q-0.90576171875,0-1.69189453125-0.350341796875t-1.09375-1.324462890625q0-0.2734375,0.401611328125-0.341796875t0.572509765625-0.068359375q0.56396484375,0,0.83740234375,0.3076171875q0.205078125,0.2392578125,0.452880859375,0.487060546875t0.521240234375,0.247802734375q0.52978515625,0,1.11083984375-0.299072265625t1.068115234375-0.7861328125t0.8203125-1.153564453125t0.333251953125-1.3671875q0-0.59814453125-0.1025390625-1.48681640625t-0.350341796875-1.708984375t-0.68359375-1.41845703125t-1.102294921875-0.59814453125q-1.00830078125,0-1.820068359375,0.9228515625t-1.35009765625,2.2216796875t-0.83740234375,2.7001953125t-0.299072265625,2.34130859375t0.11962890625,2.37548828125t0.247802734375,2.982177734375t0.247802734375,2.982177734375t0.11962890625,2.37548828125q0,0.2392578125-0.196533203125,0.384521484375t-0.469970703125,0.230712890625t-0.555419921875,0.1025390625t-0.418701171875,0.01708984375q-0.46142578125,0-0.965576171875-0.1025390625t-0.692138671875-0.63232421875q-0.2392578125-0.83740234375-0.4443359375-2.384033203125t-0.367431640625-3.41796875t-0.281982421875-3.9306640625t-0.205078125-3.973388671875t-0.128173828125-3.50341796875t-0.042724609375-2.529296875z M97.305029296875,41.4501953125q0-0.97412109375,0.247802734375-2.008056640625t0.7861328125-1.86279296875t1.358642578125-1.35009765625t1.982421875-0.521240234375q0.87158203125,0,1.837158203125,0.299072265625t1.768798828125,0.8544921875t1.307373046875,1.358642578125t0.504150390625,1.79443359375q0,1.1962890625-0.435791015625,2.27294921875t-1.221923828125,1.922607421875t-1.837158203125,1.3330078125t-2.281494140625,0.487060546875q-1.00830078125,0-1.76025390625-0.367431640625t-1.256103515625-0.982666015625t-0.751953125-1.45263671875t-0.247802734375-1.77734375z M99.817236328125,41.416015625q0,0.3076171875,0.093994140625,0.90576171875t0.281982421875,1.170654296875t0.487060546875,0.9912109375t0.726318359375,0.384521484375q0.90576171875-0.1025390625,1.495361328125-0.589599609375t0.95703125-1.187744140625t0.5126953125-1.52099609375t0.145263671875-1.55517578125q0-0.93994140625-0.367431640625-1.572265625t-1.204833984375-1.025390625q0,0.0341796875,0.0341796875,0.0341796875t0.0341796875-0.0341796875l-0.42724609375-0.1025390625q-0.1708984375-0.068359375-0.418701171875-0.15380859375t-0.487060546875-0.3759765625q-0.66650390625,0.2392578125-1.033935546875,0.615234375t-0.555419921875,0.914306640625t-0.230712890625,1.290283203125t-0.042724609375,1.8115234375z M109.55280761719,30.2734375q0-0.2392578125,0.5126953125-0.41015625t1.162109375-0.281982421875t1.256103515625-0.162353515625t0.828857421875-0.08544921875q0-0.46142578125,0.0341796875-0.931396484375t0.18798828125-0.83740234375t0.487060546875-0.589599609375t0.931396484375-0.22216796875q0.49560546875,0,0.751953125,0.11962890625t0.546875,0.49560546875q0.068359375,0.205078125,0.068359375,0.39306640625l0,0.572509765625t-0.0341796875,0.589599609375q0.63232421875-0.068359375,1.256103515625-0.162353515625t1.256103515625-0.093994140625q0.46142578125,0,0.63232421875,0.01708984375t0.341796875,0.41015625q0.13671875,0.39306640625-0.333251953125,0.59814453125t-1.1279296875,0.3076171875t-1.307373046875,0.15380859375t-0.7861328125,0.05126953125q-0.205078125,2.939453125-0.418701171875,5.82763671875t-0.213623046875,5.86181640625q0,1.3330078125,0.08544921875,2.75146484375t0.478515625,2.68310546875q0.1025390625,0.39306640625,0.341796875,0.73486328125t0.2392578125,0.73486328125q0,0.2392578125-0.18798828125,0.3759765625t-0.452880859375,0.230712890625t-0.52978515625,0.111083984375t-0.435791015625,0.01708984375q-1.07666015625,0-1.640625-0.80322265625t-0.811767578125-1.922607421875t-0.264892578125-2.298583984375t-0.01708984375-1.9140625q0-1.50390625,0.059814453125-3.076171875t0.145263671875-3.1103515625t0.2392578125-3.0078125t0.35888671875-2.734375q-0.59814453125,0.068359375-1.170654296875,0.15380859375t-1.170654296875,0.08544921875q-0.13671875,0-0.367431640625-0.01708984375t-0.435791015625-0.08544921875t-0.350341796875-0.18798828125t-0.145263671875-0.341796875z"/><path fill="#" d=""/></svg>
